<svg xmlns="http://www.w3.org/2000/svg" viewBox="0 0 24 24" fill="#FF6C37">
  <path d="M7.58 4.08L6.15 2.65C5.96 2.46 5.96 2.15 6.15 1.96L7.58 .53C7.77 .34 8.08 .34 8.27 .53L9.7 1.96C9.89 2.15 9.89 2.46 9.7 2.65L8.27 4.08C8.08 4.27 7.77 4.27 7.58 4.08zM.53 7.58C.34 7.77 .34 8.08 .53 8.27L1.96 9.7C2.15 9.89 2.46 9.89 2.65 9.7L4.08 8.27C4.27 8.08 4.27 7.77 4.08 7.58L2.65 6.15C2.46 5.96 2.15 5.96 1.96 6.15L.53 7.58zM23.47 7.58L22.04 6.15C21.85 5.96 21.54 5.96 21.35 6.15L19.92 7.58C19.73 7.77 19.73 8.08 19.92 8.27L21.35 9.7C21.54 9.89 21.85 9.89 22.04 9.7L23.47 8.27C23.66 8.08 23.66 7.77 23.47 7.58zM12 5C15.87 5 19 8.13 19 12S15.87 19 12 19 5 15.87 5 12 8.13 5 12 5M12 3C7.03 3 3 7.03 3 12S7.03 21 12 21 21 16.97 21 12 16.97 3 12 3zM12 7C14.76 7 17 9.24 17 12S14.76 17 12 17 7 14.76 7 12 9.24 7 12 7M12 9C10.34 9 9 10.34 9 12S10.34 15 12 15 15 13.66 15 12 13.66 9 12 9z"/>
</svg>